# AST/ASF file generated using VICON BodyLanguage
# -----------------------------------------------
:version 1.10
:name VICON
:units
  mass 1.0
  length 0.45
  angle deg
:documentation
   .ast/.asf automatically generated from VICON data using
   VICON BodyBuilder and BodyLanguage model FoxedUp or BRILLIANT.MOD
:root
   order TX TY TZ RX RY RZ
   axis XYZ
   position 0 0 0  
   orientation 0 0 0 
:bonedata
  begin
     id 1 
     name lhipjoint
     direction 0.627412 -0.730575 0.26947 
     length 2.49821 
     axis 0 0 0  XYZ
  end
  begin
     id 2 
     name lfemur
     direction 0.34202 -0.939693 0  
     length 6.89165  
     axis 0 0 20  XYZ
    dof rx ry rz
    limits (-160.0 20.0)
           (-70.0 70.0)
           (-60.0 70.0)
  end
  begin
     id 3 
     name ltibia
     direction 0.34202 -0.939693 0   
     length 7.91287   
     axis 0 0 20   XYZ
    dof rx
    limits (-10.0 170.0)
  end
  begin
     id 4 
     name lfoot
     direction 0.0941675 -0.258723 0.96135   
     length 2.16919   
     axis -90 7.62852e-016 20   XYZ
    dof rx rz
    limits (-45.0 90.0)
           (-70.0 20.0)
  end
  begin
     id 5 
     name ltoes
     direction 1.5347e-011 -4.21941e-011 1   
     length 1.08535   
     axis -90 7.62852e-016 20   XYZ
    dof rx
    limits (-90.0 20.0)
  end
  begin
     id 6 
     name rhipjoint
     direction -0.614241 -0.740361 0.27308   
     length 2.46519  
     axis 0 0 0  XYZ 
  end
  begin
     id 7 
     name rfemur
     direction -0.34202 -0.939693 0   
     length 7.27512   
     axis 0 0 -20   XYZ
    dof rx ry rz
    limits (-160.0 20.0)
           (-70.0 70.0)
           (-70.0 60.0)
  end
  begin
     id 8 
     name rtibia
     direction -0.34202 -0.939693 0   
     length 7.89523   
     axis 0 0 -20   XYZ
    dof rx
    limits (-10.0 170.0)
 end
 begin
     id 9 
     name rfoot
     direction -0.0860444 -0.236405 0.967837   
     length 2.29534  
     axis -90 -7.62852e-016 -20   XYZ
    dof rx rz
    limits (-45.0 90.0)
           (-20.0 70.0)
  end
  begin
     id 10 
     name rtoes
     direction -1.53608e-011 -4.21861e-011 1   
     length 1.14915   
     axis -90 -7.62852e-016 -20   XYZ
    dof rx
    limits (-90.0 20.0)
  end
  begin
     id 11 
     name lowerback
     direction -0.00734074 0.997215 -0.0742143   
     length 2.13469   
     axis 0 0 0   XYZ
    dof rx ry rz
    limits (-20.0 45.0)
           (-30.0 30.0)
           (-30.0 30.0)
  end
  begin
     id 12 
     name upperback
     direction 0.0285728 0.99958 -0.00488656   
     length 2.13416   
     axis 0 0 0   XYZ
    dof rx ry rz
    limits (-20.0 45.0)
           (-30.0 30.0)
           (-30.0 30.0)
  end
  begin
     id 13 
     name thorax
     direction 0.0316844 0.999056 0.0297249   
     length 2.14463   
     axis 0 0 0   XYZ
    dof rx ry rz
    limits (-20.0 45.0)
           (-30.0 30.0)
           (-30.0 30.0)
  end
  begin
     id 14 
     name lowerneck
     direction -0.0281545 0.996802 0.0747864   
     length 1.79004   
     axis 0 0 0   XYZ
    dof rx ry rz
    limits (-20.0 45.0)
           (-30.0 30.0)
           (-30.0 30.0)
  end
  begin
     id 15 
     name upperneck
     direction -0.00100185 0.982732 -0.185031   
     length 1.79988   
     axis 0 0 0   XYZ
    dof rx ry rz
    limits (-20.0 45.0)
           (-30.0 30.0)
           (-30.0 30.0)
  end
  begin
     id 16
     name head
     direction 0.00403747 0.997539 -0.0700022  
     length 1.81696  
     axis 0 0 0   XYZ
    dof rx ry rz
    limits (-20.0 45.0)
           (-30.0 30.0)
           (-30.0 30.0)
  end
  begin
     id 17 
     name lclavicle
     direction 0.959882 0.242905 -0.140082  
     length 3.87755  
     axis 0 0 0   XYZ
    dof ry rz
    limits (-20.0 10.0)
           (0.0 20.0)
  end
  begin
     id 18 
     name lhumerus
     direction 1 -4.4895e-011 3.76166e-027   
     length 5.14601   
     axis 180 -30 -90   XYZ
    dof rx ry rz
    limits (-60.0 90.0)
           (-90.0 90.0)
           (-90.0 90.0)
  end
  begin
     id 19
     name lradius
     direction 1 -4.48966e-011 -3.24039e-027   
     length 3.64452   
     axis 180 -30 -90   XYZ
    dof rx
    limits (-10.0 170.0)
  end
  begin
     id 20
     name lwrist
     direction 1 -4.48999e-011 2.57119e-027   
     length 1.82226   
     axis -1.61769e-015 90 90   XYZ
    dof ry
    limits (-180.0 0.0)
 end
  begin
     id 21 
     name lhand
     direction 1 -4.48961e-011 5.13984e-027   
     length 0.56228   
     axis -3.27988e-015 90 90   XYZ
    dof rx rz
    limits (-90.0 90.0)
           (-45.0 45.0)
  end
  begin
     id 22 
     name lfingers
     direction 1 -4.48991e-011 1.02836e-026   
     length 0.453325   
     axis -6.5598e-015 90 90   XYZ
    dof rx
    limits (0.0 90.0)
  end
  begin
     id 23
     name lthumb
     direction 0.707107 -6.34956e-011 0.707107   
     length 0.650886   
     axis -90 45 2.19363e-014   XYZ
    dof rx rz
    limits (-45.0 45.0)
           (-45.0 45.0)
  end
  begin
     id 24 
     name rclavicle
     direction -0.929201 0.345171 -0.132073   
     length 3.55416  
     axis 0 0 0   XYZ 
    dof ry rz
    limits (-10.0 20.0)
           (-20.0 0.0)
  end
  begin
     id 25 
     name rhumerus
     direction -1 -4.48979e-011 4.53734e-027  
     length 5.33913   
     axis 180 30 90   XYZ
    dof rx ry rz
    limits (-90.0 60.0)
           (-90.0 90.0)
           (-90.0 90.0)
  end
  begin
     id 26 
     name rradius
     direction -1 -4.4896e-011 -2.24007e-027   
     length 3.56478   
     axis 180 30 90   XYZ
    dof rx
    limits (-10.0 170.0)
  end
  begin
     id 27 
     name rwrist
     direction -1 -4.48923e-011 2.56866e-027   
     length 1.78239   
     axis -1.61769e-015 -90 -90   XYZ
    dof ry
    limits (-180.0 0.0)
  end
  begin
     id 28
     name rhand
     direction -1 -4.48914e-011 5.13667e-027   
     length 0.857474   
     axis -3.27988e-015 -90 -90   XYZ
    dof rx rz
    limits (-90.0 90.0)
           (-45.0 45.0)
  end
  begin
     id 29
     name rfingers
     direction -1 -4.49112e-011 1.02998e-026   
     length 0.691318   
     axis -6.5598e-015 -90 -90   XYZ
    dof rx
    limits (0.0 90.0)
  end
  begin
     id 30
     name rthumb
     direction -0.707107 -6.34979e-011 0.707107   
     length 0.992598   
     axis -90 -45 -2.19363e-014   XYZ
    dof rx rz
    limits (-45.0 45.0)
           (-45.0 45.0)
  end
:hierarchy
  begin
    root lhipjoint rhipjoint lowerback
    lhipjoint lfemur
    lfemur ltibia
    ltibia lfoot
    lfoot ltoes
    rhipjoint rfemur
    rfemur rtibia
    rtibia rfoot
    rfoot rtoes
    lowerback upperback
    upperback thorax
    thorax lowerneck lclavicle rclavicle
    lowerneck upperneck
    upperneck head
    lclavicle lhumerus
    lhumerus lradius
    lradius lwrist
    lwrist lhand lthumb
    lhand lfingers
    rclavicle rhumerus
    rhumerus rradius
    rradius rwrist
    rwrist rhand rthumb
    rhand rfingers
  end

#!OML:ASF F:\VICON\USERDATA\INSTALL\Justin4\Justin4.ASF
:FULLY-SPECIFIED
:DEGREES
2610
root -4.98366 16.4378 15.2798 7.17272 9.00608 0.959739
lowerback 26.1636 -0.571295 -8.28138
upperback 7.16629 -2.84306 -0.721573
thorax -6.10856 -1.30791 4.80718
lowerneck -11.4039 -1.00605 -7.53744
upperneck 5.54059 -0.571522 4.34707
head 3.53398 -0.232242 2.51127
rclavicle -8.74653e-015 2.06736e-014
rhumerus -13.9781 -15.8836 -78.8489
rradius 135.425
rwrist -18.111
rhand -11.1506 23.094
rfingers 7.12502
rthumb 14.8754 -366.352
lclavicle -8.74653e-015 2.06736e-014
lhumerus 11.4066 -7.32002 78.1499
lradius 132.934
lwrist 11.3432
lhand -9.86435 8.40286
lfingers 7.12502
lthumb 16.1143 37.7529
rfemur -50.1111 -3.21075 4.01702
rtibia 56.497
rfoot -1.47498 11.1279
rtoes -10.5953
lfemur -24.9348 7.12943 0.63767
ltibia 52.7208
lfoot -10.8735 -5.10533
ltoes -29.5579
2611
root -5.00637 16.4002 15.2398 7.03033 9.47099 0.703123
lowerback 26.2299 -0.625146 -8.15453
upperback 7.2338 -2.90786 -1.08407
thorax -6.08734 -1.33859 4.35363
lowerneck -11.2069 -1.16829 -7.88345
upperneck 5.74699 -0.786136 4.7117
head 3.58106 -0.332347 2.66714
rclavicle -2.38542e-014 -1.90833e-014
rhumerus -14.8941 -16.1148 -79.0528
rradius 135.589
rwrist -18.0144
rhand -11.0757 23.3571
rfingers 7.12502
rthumb 14.9476 -366.084
lclavicle -2.38542e-014 -1.90833e-014
lhumerus 12.0483 -7.4143 77.7797
lradius 132.822
lwrist 11.7233
lhand -9.99755 8.64512
lfingers 7.12502
lthumb 15.986 38.0055
rfemur -49.8272 -3.59483 4.14515
rtibia 59.609
rfoot -2.19798 11.1011
rtoes -11.1909
lfemur -25.2753 6.12296 1.48931
ltibia 50.3983
lfoot -11.1619 -7.70881
ltoes -30.7801
2612
root -5.02772 16.3337 15.1875 7.14006 9.99178 0.177069
lowerback 26.121 -0.735803 -7.66487
upperback 7.17079 -2.93933 -1.36137
thorax -6.14874 -1.34897 3.77623
lowerneck -11.0076 -1.32631 -8.12919
upperneck 6.04172 -1.002 4.93733
head 3.65496 -0.439001 2.76428
rclavicle 3.18055e-015 1.90833e-014
rhumerus -15.6087 -16.4042 -79.1875
rradius 135.67
rwrist -17.9346
rhand -12.2456 24.0934
rfingers 7.12502
rthumb 13.8203 -365.428
lclavicle 3.18055e-015 1.90833e-014
lhumerus 12.5517 -7.52863 77.5291
lradius 132.694
lwrist 11.9515
lhand -9.453 8.75119
lfingers 7.12502
lthumb 16.5103 38.0687
rfemur -49.9168 -4.01579 4.52767
rtibia 62.8052
rfoot -2.45819 10.9481
rtoes -10.2222
lfemur -26.1058 5.49591 2.62344
ltibia 48.4848
lfoot -10.8528 -9.88247
ltoes -31.1219
2613
root -5.10555 16.2333 15.1655 6.61637 10.0022 -2.26052
lowerback 25.7332 -0.542714 -6.53564
upperback 7.35721 -2.33368 -0.905626
thorax -5.85519 -1.08425 3.44098
lowerneck -11.0607 -1.50562 -8.52842
upperneck 6.27605 -1.20729 5.2123
head 3.75294 -0.53811 2.90188
rclavicle -2.14687e-014 -1.43125e-014
rhumerus -15.98 -17.0811 -78.958
rradius 136.078
rwrist -19.4101
rhand -10.1061 22.4514
rfingers 7.12502
rthumb 15.8815 -366.917
lclavicle -2.14687e-014 -1.43125e-014
lhumerus 13.2478 -7.62769 77.4212
lradius 132.069
lwrist 11.16
lhand -8.81048 8.6848
lfingers 7.12502
lthumb 17.1289 37.9498
rfemur -49.9595 -2.68587 7.08704
rtibia 65.9334
rfoot -2.17998 9.77461
rtoes -9.37353
lfemur -26.47 6.05529 6.23891
ltibia 47.145
lfoot -10.0328 -11.5638
ltoes -28.282
2614
root -5.13873 16.1633 15.1237 6.37496 10.3893 -3.45195
lowerback 25.5728 -0.568366 -5.74169
upperback 7.46559 -2.14946 -0.86642
thorax -5.71101 -1.00456 2.97093
lowerneck -11.2242 -1.68858 -8.88838
upperneck 6.45152 -1.41859 5.55133
head 3.85304 -0.633727 3.05225
rclavicle -1.19271e-014 3.18055e-015
rhumerus -16.4083 -18.0291 -78.4899
rradius 136.722
rwrist -21.6927
rhand -5.31155 18.8489
rfingers 7.12502
rthumb 20.494 -370.089
lclavicle -1.19271e-014 3.18055e-015
lhumerus 14.0697 -7.86881 77.2716
lradius 131.253
lwrist 9.69723
lhand -6.35976 10.6733
lfingers 7.12502
lthumb 19.4865 39.7168
rfemur -49.6022 -2.5952 8.32826
rtibia 68.7701
rfoot -2.30941 9.168
rtoes -11.2172
lfemur -27.103 5.51797 8.15493
ltibia 46.396
lfoot -9.78203 -11.1157
ltoes -26.7426
2615
root -5.1493 16.1068 15.0731 6.28532 11.0653 -4.0704
lowerback 25.4757 -0.710735 -4.91124
upperback 7.44324 -2.13493 -1.06489
thorax -5.73665 -0.994791 2.27386
lowerneck -10.8696 -1.83483 -8.87913
upperneck 6.39657 -1.65242 5.62054
head 3.79634 -0.749506 3.05717
rclavicle 3.81667e-014 -1.74931e-014
rhumerus -17.2238 -18.8995 -77.9082
rradius 137.047
rwrist -22.4221
rhand -3.34003 17.4104
rfingers 7.12502
rthumb 22.3876 -371.312
lclavicle 3.81667e-014 -1.74931e-014
lhumerus 14.4618 -8.18434 77.2137
lradius 131.282
lwrist 9.5153
lhand -8.34604 8.83778
lfingers 7.12502
lthumb 17.5759 38.0633
rfemur -49.0026 -3.15939 8.92797
rtibia 71.295
rfoot -2.46067 8.42762
rtoes -11.4847
lfemur -27.9857 4.73915 9.23119
ltibia 46.301
lfoot -10.4123 -9.9609
ltoes -30.7599
2616
root -5.14847 16.046 15.0169 6.35637 11.8381 -3.96601
lowerback 25.29 -0.883112 -4.71562
upperback 7.48453 -2.30891 -1.31147
thorax -5.60763 -1.07918 1.93723
lowerneck -10.6162 -1.95044 -9.02252
upperneck 6.23751 -1.81171 5.69409
head 3.72047 -0.829787 3.09296
rclavicle 5.80451e-014 3.81667e-014
rhumerus -17.7547 -19.2799 -77.3198
rradius 137.152
rwrist -22.2299
rhand -3.36457 17.5521
rfingers 7.12502
rthumb 22.364 -371.173
lclavicle 5.80451e-014 3.81667e-014
lhumerus 14.9565 -7.97535 77.4529
lradius 131.853
lwrist 10.8835
lhand -6.91527 10.711
lfingers 7.12502
lthumb 18.9523 39.8077
rfemur -48.3406 -4.17869 8.66148
rtibia 73.5427
rfoot -2.28879 7.55186
rtoes -8.19986
lfemur -29.0356 4.15023 9.33827
ltibia 46.8306
lfoot -11.2721 -8.83924
ltoes -35.6886
2617
root -5.13343 15.9674 14.9618 6.56545 12.5806 -3.04079
lowerback 24.9857 -1.05057 -5.33933
upperback 7.66711 -2.66003 -1.60809
thorax -5.21417 -1.25758 2.05451
lowerneck -11.0365 -2.06595 -9.465
upperneck 6.31365 -1.88047 5.87099
head 3.82321 -0.8607 3.21401
rclavicle 2.54444e-014 2.54444e-014
rhumerus -17.7483 -19.0928 -76.6941
rradius 137.277
rwrist -22.5013
rhand -3.90343 17.752
rfingers 7.12502
rthumb 21.8467 -371.035
lclavicle 2.54444e-014 2.54444e-014
lhumerus 15.7683 -7.68924 77.7363
lradius 130.984
lwrist 9.46601
lhand -8.32194 8.51248
lfingers 7.12502
lthumb 17.599 37.736
rfemur -47.5189 -5.56188 7.38661
rtibia 75.6072
rfoot -2.50992 6.91665
rtoes -7.99437
lfemur -30.1022 3.6264 8.40531
ltibia 47.8807
lfoot -10.5749 -10.4608
ltoes -32.0725
2618
root -5.1221 15.8602 14.9205 6.54759 12.9135 -2.57469
lowerback 24.6712 -1.04078 -5.81688
upperback 7.8762 -2.73224 -1.73718
thorax -4.80209 -1.30748 2.18944
lowerneck -11.5199 -2.20693 -9.74341
upperneck 6.45805 -1.98073 5.83893
head 3.95621 -0.91388 3.24081
rclavicle -1.43125e-014 -1.90833e-014
rhumerus -17.6913 -18.6614 -76.0269
rradius 137.144
rwrist -21.79
rhand -5.67659 19.0318
rfingers 7.12502
rthumb 20.1432 -369.944
lclavicle -1.43125e-014 -1.90833e-014
lhumerus 16.4064 -7.28595 78.0458
lradius 130.609
lwrist 9.1545
lhand -8.8091 7.33767
lfingers 7.12502
lthumb 17.1302 36.6025
rfemur -46.6117 -6.32711 6.5934
rtibia 77.4402
rfoot -3.19225 6.14857
rtoes -11.0366
lfemur -30.8394 3.77374 7.95561
ltibia 49.2161
lfoot -12.1848 -11.0165
ltoes -36.0513
2619
root -5.11526 15.7428 14.8853 6.44805 12.9444 -2.4571
lowerback 24.309 -0.915749 -6.07242
upperback 8.01454 -2.60021 -1.79436
thorax -4.46847 -1.25744 2.22157
lowerneck -11.6933 -2.33544 -9.86899
upperneck 6.52184 -2.10818 5.74129
head 4.01427 -0.983661 3.22085
rclavicle -4.77083e-015 -1.11319e-014
rhumerus -17.8344 -18.0839 -75.405
rradius 136.698
rwrist -19.3598
rhand -9.04666 21.7348
rfingers 7.12502
rthumb 16.9015 -367.55
lclavicle -4.77083e-015 -1.11319e-014
lhumerus 16.7819 -7.00921 78.3712
lradius 130.345
lwrist 9.0551
lhand -8.73784 6.68148
lfingers 7.12502
lthumb 17.1988 35.9404
rfemur -45.7579 -6.60797 6.20424
rtibia 78.9068
rfoot -4.18585 5.43368
rtoes -14.5979
lfemur -31.4257 4.31721 7.85352
ltibia 50.5503
lfoot -14.0431 -10.6257
ltoes -39.5388
2620
root -5.10185 15.627 14.8515 6.50838 12.8233 -2.02225
lowerback 23.7918 -0.73713 -6.50432
upperback 8.12221 -2.43332 -1.96406
thorax -4.09079 -1.1923 2.22012
lowerneck -11.798 -2.46096 -9.86503
upperneck 6.50228 -2.25297 5.60394
head 4.03506 -1.06074 3.16606
rclavicle 5.80451e-014 4.45278e-014
rhumerus -17.9227 -18.1889 -74.6507
rradius 136.827
rwrist -19.6682
rhand -8.96228 21.71
rfingers 7.12502
rthumb 16.9827 -367.568
lclavicle 5.80451e-014 4.45278e-014
lhumerus 16.9645 -6.84901 78.7562
lradius 131.079
lwrist 10.1235
lhand -6.92487 9.96647
lfingers 7.12502
lthumb 18.9431 39.064
rfemur -44.9139 -6.83307 5.4178
rtibia 79.902
rfoot -5.70941 4.93839
rtoes -17.7687
lfemur -32.0038 4.815 7.30305
ltibia 51.6836
lfoot -14.9006 -10.2525
ltoes -38.281
2621
root -5.0915 15.5116 14.8288 6.49719 12.3889 -1.66499
lowerback 23.1946 -0.436573 -6.65639
upperback 8.26094 -2.04479 -2.2895
thorax -3.67829 -1.01689 1.83772
lowerneck -11.9221 -2.71048 -9.85536
upperneck 6.43038 -2.58784 5.73605
head 4.06108 -1.21585 3.18041
rclavicle -1.82882e-014 -4.77083e-015
rhumerus -18.2446 -18.6708 -74.2203
rradius 136.921
rwrist -19.7522
rhand -9.0283 22.0421
rfingers 7.12502
rthumb 16.9192 -367.241
lclavicle -1.82882e-014 -4.77083e-015
lhumerus 17.1466 -7.01858 78.9893
lradius 131.43
lwrist 10.489
lhand -6.08675 11.0745
lfingers 7.12502
lthumb 19.749 40.0912
rfemur -43.9728 -6.63873 4.72697
rtibia 80.3429
rfoot -8.06513 4.13229
rtoes -20.1797
lfemur -32.1601 5.53141 6.83913
ltibia 52.551
lfoot -15.939 -10.2527
ltoes -37.0526
2622
root -5.08856 15.409 14.8205 6.23794 11.8495 -1.53673
lowerback 22.7533 -0.119128 -5.90257
upperback 8.41418 -1.47105 -2.95662
thorax -3.38207 -0.728262 0.542229
lowerneck -11.9691 -3.1716 -9.93224
upperneck 6.46198 -3.26374 6.49015
head 4.14654 -1.5097 3.37823
rclavicle -9.54166e-015 1.59028e-015
rhumerus -19.059 -19.8913 -73.9895
rradius 137.314
rwrist -19.9946
rhand -8.87011 22.0794
rfingers 7.12502
rthumb 17.0715 -367.191
lclavicle -9.54166e-015 1.59028e-015
lhumerus 17.5129 -7.93946 78.7385
lradius 131.276
lwrist 10.3879
lhand -6.13224 10.7101
lfingers 7.12502
lthumb 19.7052 39.7313
rfemur -42.6332 -6.18625 4.37244
rtibia 80.2049
rfoot -11.2795 2.92531
rtoes -22.8996
lfemur -31.8066 6.16981 6.72838
ltibia 53.2695
lfoot -17.231 -10.0649
ltoes -37.3186
2623
root -5.08727 15.3375 14.8115 5.88611 11.4103 -1.35686
lowerback 24.5759 0.166973 -6.73879
upperback 6.91708 -1.54047 -2.69526
thorax -5.89699 -0.67993 1.34885
lowerneck -10.8946 -2.9613 -10.2732
upperneck 7.52405 -3.03796 6.22971
head 4.27922 -1.45032 3.37877
rclavicle -2.38542e-015 1.11319e-014
rhumerus -21.4716 -18.4963 -72.1691
rradius 137.737
rwrist -20.5811
rhand -8.27318 21.9021
rfingers 7.12502
rthumb 17.646 -367.317
lclavicle -2.38542e-015 1.11319e-014
lhumerus 14.5706 -7.62378 79.5575
lradius 131.251
lwrist 9.62534
lhand -6.91071 8.84232
lfingers 7.12502
lthumb 18.9567 37.9386
rfemur -40.9958 -5.8288 4.02574
rtibia 79.5145
rfoot -14.9847 1.67276
rtoes -24.9921
lfemur -31.3749 6.45175 6.56391
ltibia 53.9109
lfoot -18.2958 -9.38054
ltoes -37.4145
2624
root -5.09568 15.2529 14.7828 5.58756 10.8174 -1.29784
lowerback 24.6459 0.413531 -6.99827
upperback 6.77245 -1.31386 -2.77796
thorax -6.10137 -0.562374 1.34179
lowerneck -10.7152 -3.04842 -10.1101
upperneck 7.60562 -3.19298 6.16078
head 4.28402 -1.52933 3.32076
rclavicle 5.56597e-015 -1.59028e-015
rhumerus -21.8114 -18.1708 -71.8196
rradius 137.848
rwrist -20.2905
rhand -8.02308 22.0587
rfingers 7.12502
rthumb 17.8866 -367.139
lclavicle 5.56597e-015 -1.59028e-015
lhumerus 14.0484 -7.32579 79.6993
lradius 132.185
lwrist 11.296
lhand -5.59553 13.1231
lfingers 7.12502
lthumb 20.2211 42.0906
rfemur -39.9031 -5.30159 3.88351
rtibia 78.6208
rfoot -18.3864 0.597404
rtoes -26.1051
lfemur -31.2329 6.98512 6.59201
ltibia 54.6606
lfoot -19.2284 -9.00843
ltoes -37.3708
